<?xml version="1.0" encoding="utf-8"?>
<!-- Generator: Adobe Illustrator 22.1.0, SVG Export Plug-In . SVG Version: 6.00 Build 0)  -->
<svg version="1.1" id="Layer_1" xmlns="http://www.w3.org/2000/svg" xmlns:xlink="http://www.w3.org/1999/xlink" x="0px" y="0px"
	 viewBox="0 0 482 482" style="enable-background:new 0 0 482 482;" xml:space="preserve">
<style type="text/css">
	.st0{fill:#C2C9CC;}
	.st1{fill:#568ED8;}
	.st2{fill:#78CC66;}
</style>
<path id="w" class="st0" d="M352.4,105.6c0-0.7-0.1-1.4-0.1-2.1c-0.1-1.2-0.2-2.3-0.3-3.4c0-0.6-0.1-1.1-0.2-1.7
	c0-0.4-0.1-0.9-0.2-1.3c-0.2-1.8-0.5-3.5-0.8-5.3c-0.2-0.9-0.3-1.8-0.5-2.6c-0.2-0.9-0.4-1.8-0.6-2.7c-0.2-0.9-0.4-1.7-0.6-2.6
	c0,0,0,0,0,0c-0.1-0.5-0.3-1-0.4-1.5c-0.1-0.5-0.2-0.9-0.4-1.4c-0.2-0.8-0.5-1.6-0.7-2.4c-0.2-0.7-0.4-1.3-0.6-2
	c0-0.1-0.1-0.3-0.1-0.4c-0.2-0.6-0.4-1.2-0.6-1.8c-0.1-0.3-0.2-0.5-0.3-0.8c-0.2-0.6-0.4-1.2-0.6-1.7c-0.4-1.1-0.9-2.2-1.3-3.3
	c-0.2-0.5-0.4-0.9-0.6-1.4c-0.2-0.5-0.4-1-0.6-1.4c-0.1-0.1-0.1-0.3-0.2-0.5c-0.3-0.7-0.6-1.4-1-2c-0.3-0.7-0.7-1.3-1-2
	c-0.2-0.5-0.5-1-0.8-1.5c-0.2-0.4-0.4-0.8-0.6-1.1c-0.1-0.2-0.2-0.5-0.4-0.7c-0.3-0.6-0.7-1.2-1-1.8c-0.4-0.6-0.7-1.3-1.1-1.9
	c-0.3-0.5-0.5-0.9-0.8-1.3c-0.2-0.4-0.5-0.7-0.7-1.1c-0.2-0.3-0.4-0.6-0.6-0.9c-0.3-0.5-0.7-1-1-1.5c-0.1-0.2-0.2-0.3-0.3-0.5
	c-0.4-0.5-0.7-1.1-1.1-1.6c-0.5-0.6-0.9-1.3-1.4-1.9c-0.3-0.5-0.7-1-1.1-1.5c-0.4-0.5-0.8-1-1.2-1.6c-0.4-0.5-0.8-1-1.2-1.5
	c-0.4-0.5-0.9-1.1-1.4-1.6c-0.4-0.5-0.8-1-1.2-1.5c-0.2-0.2-0.4-0.4-0.6-0.6c-0.3-0.4-0.7-0.8-1-1.1c-0.3-0.4-0.7-0.8-1.1-1.2
	c-0.2-0.2-0.3-0.4-0.5-0.5c-0.5-0.5-0.9-1-1.4-1.4c-0.1-0.1-0.2-0.3-0.4-0.4c-0.6-0.6-1.2-1.2-1.8-1.7c-0.6-0.6-1.2-1.2-1.9-1.7
	c-0.1-0.1-0.1-0.1-0.2-0.2c-0.4-0.4-0.9-0.8-1.3-1.2c-0.4-0.4-0.8-0.7-1.2-1.1c-0.2-0.1-0.3-0.3-0.5-0.4c-0.5-0.4-0.9-0.8-1.4-1.2
	c-0.2-0.2-0.5-0.4-0.7-0.6c-0.4-0.3-0.8-0.6-1.2-1c-0.4-0.3-0.8-0.7-1.3-1c-0.2-0.1-0.4-0.3-0.6-0.4c-0.5-0.4-0.9-0.7-1.4-1
	c-0.4-0.3-0.7-0.5-1.1-0.8c-0.2-0.1-0.3-0.2-0.5-0.4c-0.6-0.4-1.1-0.8-1.7-1.2c-0.2-0.2-0.5-0.3-0.7-0.5c-0.4-0.3-0.9-0.6-1.3-0.8
	c-0.4-0.3-0.8-0.5-1.3-0.8c-0.3-0.2-0.6-0.4-0.9-0.6c-0.3-0.2-0.7-0.4-1.1-0.6c-0.5-0.3-1-0.6-1.5-0.9c-0.6-0.3-1.2-0.7-1.9-1
	c-0.5-0.3-1.1-0.6-1.6-0.9c-0.3-0.2-0.7-0.3-1-0.5c-0.7-0.4-1.5-0.8-2.2-1.1c-0.8-0.4-1.5-0.7-2.3-1.1c-0.5-0.2-1.1-0.5-1.6-0.7
	c-0.5-0.2-0.9-0.4-1.3-0.6c-0.2-0.1-0.3-0.1-0.5-0.2c-0.7-0.3-1.3-0.5-2-0.8c-0.2-0.1-0.4-0.2-0.7-0.3c-0.7-0.3-1.3-0.5-2-0.7
	c-0.7-0.2-1.4-0.5-2.1-0.7c-0.7-0.2-1.4-0.5-2.1-0.7c-0.2-0.1-0.5-0.1-0.7-0.2c-0.8-0.2-1.6-0.5-2.5-0.7c-0.5-0.1-1-0.3-1.5-0.4
	c-0.5-0.1-1-0.3-1.5-0.4c-0.8-0.2-1.5-0.4-2.3-0.6c-0.9-0.2-1.8-0.4-2.6-0.6c-0.9-0.2-1.9-0.4-2.8-0.5c-0.7-0.1-1.4-0.2-2.2-0.4
	c-3-0.5-6-0.8-9-1.1c-1.9-0.1-3.7-0.2-5.6-0.3c0,0,0,0,0,0c0,0,0,0,0,0c-1,0-1.9,0-2.8,0H241C107.9,0,0,107.9,0,241
	c0,41.1,10.3,79.8,28.4,113.6c-7.6-15.1-11.9-32.2-11.9-50.3c0-62,50.3-112.2,112.2-112.2c19.2,0,37.3,4.8,53.2,13.4
	c2.3,1.2,4.5,2.5,6.6,3.9c15.7,8.5,33.6,13.3,52.7,13.3c18,0,35-4.3,50.1-11.9c3.6-2.4,7.4-4.6,11.3-6.6c30-19.9,49.9-54,49.9-92.8
	C352.5,109.4,352.5,107.5,352.4,105.6z M244.5,137.5c-16.6,0-30-13.4-30-30s13.4-30,30-30s30,13.4,30,30S261.1,137.5,244.5,137.5z"
	/>
<path id="b" class="st1" d="M353.2,416.5c-62,0-112.2-50.3-112.2-112.2c0-40-20.9-75.1-52.5-95c-2.3-1.2-4.5-2.5-6.6-3.9
	c-15.8-8.5-33.9-13.4-53.2-13.4c-62,0-112.2,50.3-112.2,112.2c0,18.1,4.3,35.2,11.9,50.3c1.7,3.2,3.5,6.4,5.4,9.5
	C75.8,434.7,152.9,482,241,482s165.2-47.3,207.2-117.9C428.4,395.6,393.2,416.5,353.2,416.5z M125.5,324.5c-16.6,0-30-13.4-30-30
	s13.4-30,30-30s30,13.4,30,30S142.1,324.5,125.5,324.5z"/>
<path id="g" class="st2" d="M244.3,0c1.9,0,3.7,0.2,5.6,0.3c3,0.2,6.1,0.6,9,1.1c0.7,0.1,1.4,0.2,2.2,0.4c0.9,0.2,1.9,0.4,2.8,0.5
	c0.9,0.2,1.8,0.4,2.6,0.6c0.8,0.2,1.6,0.4,2.3,0.6c0.5,0.1,1,0.3,1.5,0.4c0.5,0.1,1,0.3,1.5,0.4c0.8,0.2,1.7,0.5,2.5,0.7
	c0.2,0.1,0.5,0.1,0.7,0.2c0.7,0.2,1.4,0.4,2.1,0.7c0.7,0.2,1.4,0.5,2.1,0.7c0.7,0.2,1.3,0.5,2,0.7c0.2,0.1,0.5,0.2,0.7,0.3
	c0.7,0.2,1.3,0.5,2,0.8c0.2,0.1,0.3,0.1,0.5,0.2c0.4,0.2,0.9,0.4,1.3,0.6c0.5,0.2,1.1,0.5,1.6,0.7c0.8,0.3,1.5,0.7,2.3,1.1
	c0.7,0.3,1.5,0.7,2.2,1.1c0.3,0.2,0.7,0.3,1,0.5c0.5,0.3,1.1,0.6,1.6,0.9c0.6,0.3,1.2,0.7,1.9,1c0.5,0.3,1,0.6,1.5,0.9
	c0.4,0.2,0.7,0.4,1.1,0.6c0.3,0.2,0.6,0.4,0.9,0.6c0.4,0.2,0.9,0.5,1.3,0.8c0.4,0.3,0.9,0.5,1.3,0.8c0.2,0.1,0.5,0.3,0.7,0.5
	c0.6,0.4,1.2,0.8,1.7,1.2c0.2,0.1,0.4,0.2,0.5,0.4c0.4,0.2,0.7,0.5,1.1,0.8c0.5,0.3,0.9,0.7,1.4,1c0.2,0.1,0.4,0.3,0.6,0.4
	c0.4,0.3,0.9,0.7,1.3,1c0.4,0.3,0.8,0.6,1.2,1c0.2,0.2,0.5,0.4,0.7,0.6c0.5,0.4,1,0.8,1.4,1.2c0.2,0.1,0.3,0.3,0.5,0.4
	c0.4,0.3,0.8,0.7,1.2,1.1c0.4,0.4,0.9,0.8,1.3,1.2c0.1,0.1,0.1,0.1,0.2,0.2c0.6,0.6,1.2,1.1,1.9,1.7c0.6,0.6,1.2,1.1,1.8,1.7
	c0.1,0.1,0.3,0.3,0.4,0.4c0.5,0.5,0.9,0.9,1.4,1.4c0.2,0.2,0.3,0.4,0.5,0.5c0.4,0.4,0.7,0.8,1.1,1.2c0.4,0.4,0.7,0.8,1,1.1
	c0.2,0.2,0.4,0.4,0.6,0.6c0.4,0.5,0.8,1,1.2,1.5c0.5,0.5,0.9,1.1,1.4,1.6c0.4,0.5,0.8,1,1.2,1.5c0.4,0.5,0.8,1,1.2,1.6
	c0.4,0.5,0.7,1,1.1,1.5c0.5,0.6,0.9,1.3,1.4,1.9c0.4,0.5,0.7,1.1,1.1,1.6c0.1,0.1,0.2,0.3,0.3,0.5c0.3,0.5,0.7,1,1,1.5
	c0.2,0.3,0.4,0.6,0.6,0.9c0.2,0.4,0.5,0.7,0.7,1.1c0.3,0.4,0.5,0.9,0.8,1.3c0.4,0.6,0.8,1.3,1.1,1.9c0.3,0.6,0.7,1.2,1,1.8
	c0.1,0.2,0.3,0.5,0.4,0.7c0.2,0.4,0.4,0.8,0.6,1.1c0.3,0.5,0.5,1,0.8,1.5c0.3,0.7,0.7,1.3,1,2c0.3,0.7,0.6,1.4,1,2
	c0.1,0.2,0.2,0.3,0.2,0.5c0.2,0.5,0.4,1,0.6,1.4c0.2,0.5,0.4,0.9,0.6,1.4c0.5,1.1,0.9,2.2,1.3,3.3c0.2,0.6,0.4,1.1,0.6,1.7
	c0.1,0.3,0.2,0.5,0.3,0.8c0.2,0.6,0.4,1.2,0.6,1.8c0,0.1,0.1,0.3,0.1,0.4c0.2,0.7,0.4,1.3,0.6,2c0.2,0.8,0.5,1.6,0.7,2.4
	c0.1,0.5,0.3,1,0.4,1.4c0.1,0.5,0.3,1,0.4,1.5c0,0,0,0,0,0c0.2,0.9,0.4,1.7,0.6,2.6c0.2,0.9,0.4,1.8,0.6,2.7
	c0.2,0.9,0.3,1.8,0.5,2.6c0.3,1.7,0.6,3.5,0.8,5.3c0,0.4,0.1,0.8,0.2,1.3c0.1,0.6,0.1,1.1,0.2,1.7c0.1,1.1,0.2,2.3,0.3,3.4
	c0.1,0.7,0.1,1.4,0.1,2.1c0.1,1.9,0.1,3.7,0.1,5.6c0,38.8-19.8,72.9-49.9,92.8c-3.6,2.4-7.4,4.6-11.3,6.6
	C261,230.7,241,265.1,241,304.2c0,62,50.3,112.2,112.2,112.2c40,0,75.1-20.9,95-52.4c1.9-3.1,3.7-6.3,5.4-9.5
	C471.7,320.8,482,282.1,482,241C482,109,375.9,1.8,244.3,0z M352,335c-16.6,0-30-13.4-30-30s13.4-30,30-30s30,13.4,30,30
	S368.6,335,352,335z"/>
</svg>
